<svg xmlns="http://www.w3.org/2000/svg" viewBox="0 0 808 159"><defs><style>.cls-1{fill:#f0f;}</style></defs><g id="Слой_7" data-name="Слой 7"><g id="NoCloud_font_quicksand" data-name="NoCloud font quicksand"><path class="cls-1" d="M108.82,8.27A5.66,5.66,0,0,1,113.16,10a6,6,0,0,1,1.59,4.24V149.89a6.36,6.36,0,0,1-2,5,6.65,6.65,0,0,1-4.56,1.8,8,8,0,0,1-2.86-.53,5.13,5.13,0,0,1-2.23-1.59L8.53,27.35l3.61-2.12V151a5.5,5.5,0,0,1-1.7,4,5.71,5.71,0,0,1-4.24,1.7A5.62,5.62,0,0,1,1.86,155a5.68,5.68,0,0,1-1.59-4V14.63A6.12,6.12,0,0,1,2.07,10,6.11,6.11,0,0,1,6.41,8.27a8.33,8.33,0,0,1,2.76.53,4.51,4.51,0,0,1,2.33,1.8L105,136.54l-2.12,3.81V14.2a5.79,5.79,0,0,1,5.94-5.93Z"/><path class="cls-1" d="M252.35,102.4a59.46,59.46,0,0,1-7,28.94,53,53,0,0,1-93.19,0,58.75,58.75,0,0,1-7.1-28.94q0-16.32,7.1-29a54,54,0,0,1,19.3-20.15,54.3,54.3,0,0,1,54.8,0,53.45,53.45,0,0,1,19.09,20.15Q252.35,86.08,252.35,102.4Zm-12.72,0a48.67,48.67,0,0,0-5.3-23,40.23,40.23,0,0,0-14.52-15.8,41.19,41.19,0,0,0-41.88,0A40.74,40.74,0,0,0,163.2,79.4a47.9,47.9,0,0,0-5.41,23,47.28,47.28,0,0,0,5.41,22.9,41.66,41.66,0,0,0,14.73,15.8,40.52,40.52,0,0,0,41.88,0,41.14,41.14,0,0,0,14.52-15.8A48,48,0,0,0,239.63,102.4Z"/><path class="cls-1" d="M391,19.29a6.34,6.34,0,0,1,3,4.35,6.66,6.66,0,0,1-1.49,5.19,4.67,4.67,0,0,1-3.71,2.23,9.82,9.82,0,0,1-4.56-1,66.61,66.61,0,0,0-17.17-8.26,64.61,64.61,0,0,0-19.72-3,61.61,61.61,0,0,0-24.06,4.66,58.28,58.28,0,0,0-19.4,13.15A59.58,59.58,0,0,0,291,56.82a69.82,69.82,0,0,0-4.55,25.65,70.51,70.51,0,0,0,4.66,26.19,59.68,59.68,0,0,0,13,20.24,56.9,56.9,0,0,0,19.4,12.94,62.75,62.75,0,0,0,23.74,4.45,63.64,63.64,0,0,0,19.62-3,75.39,75.39,0,0,0,17.27-8.06,6.76,6.76,0,0,1,4.46-.95,6.19,6.19,0,0,1,4,2.44,6.7,6.7,0,0,1,1.27,5.09,5.25,5.25,0,0,1-2.76,4,84.3,84.3,0,0,1-12.51,6.46,81.48,81.48,0,0,1-15.26,4.77,78.22,78.22,0,0,1-16.12,1.7,75.13,75.13,0,0,1-28.72-5.51,72.85,72.85,0,0,1-40-39.65,79,79,0,0,1-5.94-31.17,77.19,77.19,0,0,1,5.83-30.32,76.11,76.11,0,0,1,16-24.06,73.13,73.13,0,0,1,23.75-16,74,74,0,0,1,29-5.72,80.39,80.39,0,0,1,23.33,3.39A74.76,74.76,0,0,1,391,19.29Z"/><path class="cls-1" d="M431.93,150.32a6.53,6.53,0,0,1-6.36,6.36,6,6,0,0,1-4.56-1.91,6.29,6.29,0,0,1-1.8-4.45V6.15a6.1,6.1,0,0,1,1.91-4.46,6.09,6.09,0,0,1,4.45-1.9,6,6,0,0,1,4.56,1.9,6.31,6.31,0,0,1,1.8,4.46Z"/><path class="cls-1" d="M565.5,102.4a59.35,59.35,0,0,1-7,28.94,53.65,53.65,0,0,1-73.88,20.14,52.8,52.8,0,0,1-19.3-20.14,58.65,58.65,0,0,1-7.1-28.94q0-16.32,7.1-29a54,54,0,0,1,19.3-20.15,54.3,54.3,0,0,1,54.8,0A53.35,53.35,0,0,1,558.5,73.36Q565.5,86.08,565.5,102.4Zm-12.72,0a48.67,48.67,0,0,0-5.3-23A40.38,40.38,0,0,0,533,63.6a41.19,41.19,0,0,0-41.88,0,40.74,40.74,0,0,0-14.73,15.8,47.79,47.79,0,0,0-5.41,23,47.17,47.17,0,0,0,5.41,22.9,41.66,41.66,0,0,0,14.73,15.8,40.52,40.52,0,0,0,41.88,0,41.29,41.29,0,0,0,14.52-15.8A48,48,0,0,0,552.78,102.4Z"/><path class="cls-1" d="M673.62,49a6,6,0,0,1,4.56,1.91A6.3,6.3,0,0,1,680,55.33v59.79q0,21-11.88,32t-32,11q-20.15,0-31.91-11t-11.77-32V55.33a6.11,6.11,0,0,1,1.91-4.45A6.36,6.36,0,0,1,599,49a6,6,0,0,1,4.55,1.91,6.3,6.3,0,0,1,1.81,4.45v59.79q0,15.27,8.16,23.22t22.58,7.95q14.63,0,22.79-7.95t8.16-23.22V55.33A6.36,6.36,0,0,1,673.62,49Z"/><path class="cls-1" d="M802.1-.21a6,6,0,0,1,4.56,1.9,6.31,6.31,0,0,1,1.8,4.46V150.32a6.51,6.51,0,0,1-6.36,6.36,5.92,5.92,0,0,1-4.66-1.91,6.5,6.5,0,0,1-1.7-4.45V125.09l3.61-3a28.53,28.53,0,0,1-3.18,12.62,40.88,40.88,0,0,1-9,11.87,48.36,48.36,0,0,1-13.57,8.8,41,41,0,0,1-16.65,3.39,45.59,45.59,0,0,1-25.54-7.42,52.1,52.1,0,0,1-17.92-20.14q-6.57-12.72-6.57-29.05a62.56,62.56,0,0,1,6.57-28.94,51.48,51.48,0,0,1,17.81-20.14,45.21,45.21,0,0,1,25.23-7.32A44.15,44.15,0,0,1,773.27,49a46.07,46.07,0,0,1,13.89,8.7,42.31,42.31,0,0,1,9.54,12.61A33,33,0,0,1,800.2,85l-4.46-3.18V6.15a6.53,6.53,0,0,1,1.7-4.46A5.91,5.91,0,0,1,802.1-.21ZM758,146.93a34.84,34.84,0,0,0,20-5.83,40.47,40.47,0,0,0,13.57-15.91,51.21,51.21,0,0,0,5-23,50.72,50.72,0,0,0-5-22.79,39.35,39.35,0,0,0-13.68-15.8,37.39,37.39,0,0,0-39.75,0A39,39,0,0,0,724.4,79.4a50.72,50.72,0,0,0-5,22.79,51.44,51.44,0,0,0,5,22.9,39.66,39.66,0,0,0,13.78,16A35.11,35.11,0,0,0,758,146.93Z"/></g></g></svg>